<svg width="16" height="16" viewBox="0 0 16 16" fill="none" xmlns="http://www.w3.org/2000/svg">
<g id="github">
<path id="Vector" d="M8.35945 1.29718C7.5434 1.29718 6.73533 1.45911 5.98139 1.77371C5.22745 2.08832 4.5424 2.54944 3.96536 3.13076C2.79997 4.30478 2.14526 5.89709 2.14526 7.5574C2.14526 10.3244 3.92874 12.672 6.39577 13.5046C6.70648 13.5547 6.80591 13.3606 6.80591 13.1916C6.80591 13.0476 6.80591 12.6532 6.80591 12.1336C5.08458 12.5092 4.71794 11.2948 4.71794 11.2948C4.43209 10.5686 4.02816 10.3745 4.02816 10.3745C3.46267 9.98637 4.07166 9.99889 4.07166 9.99889C4.69308 10.0427 5.02243 10.6437 5.02243 10.6437C5.56307 11.5952 6.47655 11.3135 6.83076 11.1633C6.88669 10.7564 7.04826 10.4809 7.22226 10.3244C5.84271 10.1679 4.3948 9.62954 4.3948 7.24439C4.3948 6.54951 4.63094 5.99235 5.03486 5.54787C4.97272 5.39137 4.75522 4.7403 5.097 3.89517C5.097 3.89517 5.619 3.72615 6.80591 4.53372C7.29683 4.39599 7.83125 4.32713 8.35945 4.32713C8.88766 4.32713 9.42208 4.39599 9.913 4.53372C11.0999 3.72615 11.6219 3.89517 11.6219 3.89517C11.9637 4.7403 11.7462 5.39137 11.684 5.54787C12.088 5.99235 12.3241 6.54951 12.3241 7.24439C12.3241 9.6358 10.87 10.1617 9.48422 10.3182C9.70793 10.5122 9.913 10.8941 9.913 11.4763C9.913 12.3152 9.913 12.9913 9.913 13.1916C9.913 13.3606 10.0124 13.561 10.3294 13.5046C12.7964 12.6657 14.5736 10.3244 14.5736 7.5574C14.5736 6.7353 14.4129 5.92124 14.1006 5.16172C13.7883 4.40219 13.3306 3.71207 12.7536 3.13076C12.1765 2.54944 11.4915 2.08832 10.7375 1.77371C9.98358 1.45911 9.17551 1.29718 8.35945 1.29718Z" fill="#FCFDFD"/>
</g>
</svg>
