<svg width="16" height="16" viewBox="0 0 16 16" fill="none" xmlns="http://www.w3.org/2000/svg">
<g id="linkedin">
<path id="Vector" d="M11.3096 1.92322C11.6393 1.92322 11.9554 2.05513 12.1885 2.28993C12.4215 2.52474 12.5525 2.8432 12.5525 3.17526V11.9396C12.5525 12.2716 12.4215 12.5901 12.1885 12.8249C11.9554 13.0597 11.6393 13.1916 11.3096 13.1916H2.60978C2.28016 13.1916 1.96404 13.0597 1.73096 12.8249C1.49788 12.5901 1.36694 12.2716 1.36694 11.9396V3.17526C1.36694 2.8432 1.49788 2.52474 1.73096 2.28993C1.96404 2.05513 2.28016 1.92322 2.60978 1.92322H11.3096ZM10.9989 11.6266V8.30864C10.9989 7.76738 10.7855 7.24829 10.4056 6.86556C10.0257 6.48283 9.5104 6.26781 8.97311 6.26781C8.44491 6.26781 7.8297 6.59334 7.53142 7.08164V6.38676H5.79766V11.6266H7.53142V8.54027C7.53142 8.05824 7.9167 7.66384 8.39519 7.66384C8.62593 7.66384 8.84721 7.75618 9.01037 7.92054C9.17352 8.08491 9.26518 8.30783 9.26518 8.54027V11.6266H10.9989ZM3.77805 5.4039C4.05493 5.4039 4.32047 5.2931 4.51626 5.09586C4.71204 4.89863 4.82203 4.63112 4.82203 4.35218C4.82203 3.76998 4.35597 3.29421 3.77805 3.29421C3.49952 3.29421 3.2324 3.40567 3.03545 3.60408C2.8385 3.80249 2.72785 4.07159 2.72785 4.35218C2.72785 4.93439 3.20013 5.4039 3.77805 5.4039ZM4.64182 11.6266V6.38676H2.92049V11.6266H4.64182Z" fill="#FCFDFD"/>
</g>
</svg>
